<?xml version="1.0" standalone="no"?>
<!DOCTYPE svg PUBLIC "-//W3C//DTD SVG 20010904//EN"
 "http://www.w3.org/TR/2001/REC-SVG-20010904/DTD/svg10.dtd">
<svg version="1.0" xmlns="http://www.w3.org/2000/svg"
 width="200.000000pt" height="200.000000pt" viewBox="0 0 200.000000 200.000000"
 preserveAspectRatio="xMidYMid meet">

<g transform="translate(0.000000,200.000000) scale(0.100000,-0.100000)"
fill="#000000" stroke="none">
<path d="M0 1000 l0 -1000 1000 0 1000 0 0 1000 0 1000 -1000 0 -1000 0 0
-1000z m1139 535 c176 -42 333 -180 387 -343 26 -76 32 -79 112 -59 28 8 52
13 52 11 0 -10 -56 -57 -77 -65 -37 -14 -123 -11 -180 6 -42 13 -323 151 -323
159 0 2 21 0 48 -5 51 -8 116 -29 189 -60 25 -11 48 -17 51 -15 11 12 -44 99
-93 145 -147 139 -363 155 -532 39 -40 -27 -48 -29 -124 -26 l-82 3 55 53 c69
67 127 106 198 133 105 40 215 48 319 24z m-294 -301 c33 -9 166 -67 295 -130
323 -159 393 -172 534 -100 l64 32 -15 -31 c-32 -63 -75 -105 -138 -136 -56
-27 -74 -31 -147 -31 -46 0 -111 7 -145 16 -60 16 -280 107 -437 181 -103 49
-165 65 -252 65 -93 0 -159 -21 -239 -75 -39 -27 -65 -39 -65 -31 0 20 73 127
111 162 109 99 251 125 434 78z m-153 -248 c45 -9 132 -41 228 -84 147 -66
229 -96 330 -123 37 -10 42 -13 25 -20 -11 -4 -56 -8 -101 -8 -108 -1 -211 26
-354 94 -107 51 -205 84 -215 73 -10 -10 26 -103 59 -153 120 -180 355 -237
561 -134 26 13 74 52 105 86 l57 63 62 0 c42 0 61 -4 61 -13 0 -26 -83 -138
-133 -180 -70 -58 -97 -74 -175 -103 -284 -107 -612 59 -712 362 -16 48 -25
61 -37 57 -13 -5 -13 -3 -3 13 18 30 77 64 123 74 23 4 43 8 44 9 1 1 34 -5
75 -13z"/>
</g>
</svg>
